{"asset":{"version":"2.0","generator":"Babylon2Gltf2017","copyright":"2017 (c) BabylonJS"},"scene":0,"scenes":[{"nodes":[0]}],"nodes":[{"mesh":0,"translation":[0.0,0.0,0.0],"rotation":[0.0,0.0,0.0,-1.0],"scale":[1.0,1.0,1.0],"name":"Bar"}],"meshes":[{"primitives":[{"attributes":{"POSITION":1,"NORMAL":2,"TEXCOORD_0":3},"indices":0,"mode":4,"material":0},{"attributes":{"POSITION":5,"NORMAL":6,"TEXCOORD_0":7},"indices":4,"mode":4,"material":1}],"name":"Bar"}],"accessors":[{"bufferView":0,"componentType":5123,"count":1764,"type":"SCALAR","name":"accessorIndices"},{"bufferView":1,"componentType":5126,"count":1764,"max":[10.597496,8.160976,9.612771],"min":[-10.597496,-0.000215,-9.353031],"type":"VEC3","name":"accessorPositions"},{"bufferView":1,"byteOffset":21168,"componentType":5126,"count":1764,"type":"VEC3","name":"accessorNormals"},{"bufferView":2,"componentType":5126,"count":1764,"type":"VEC2","name":"accessorUVs"},{"bufferView":0,"byteOffset":3528,"componentType":5123,"count":17064,"type":"SCALAR","name":"accessorIndices"},{"bufferView":1,"byteOffset":42336,"componentType":5126,"count":17064,"max":[7.391519,7.620978,8.193815],"min":[-8.409393,0.433966,-8.761887],"type":"VEC3","name":"accessorPositions"},{"bufferView":1,"byteOffset":247104,"componentType":5126,"count":17064,"type":"VEC3","name":"accessorNormals"},{"bufferView":2,"byteOffset":14112,"componentType":5126,"count":17064,"type":"VEC2","name":"accessorUVs"}],"bufferViews":[{"buffer":0,"byteLength":37656,"name":"bufferViewScalar"},{"buffer":0,"byteOffset":37656,"byteLength":451872,"byteStride":12,"name":"bufferViewFloatVec3"},{"buffer":0,"byteOffset":489528,"byteLength":150624,"byteStride":8,"name":"bufferViewFloatVec2"}],"buffers":[{"uri":"andybarmod.bin","byteLength":640152}],"materials":[{"pbrMetallicRoughness":{"baseColorFactor":[1.0,1.0,1.0,1.0],"baseColorTexture":{"index":0},"metallicFactor":0.0,"roughnessFactor":0.7},"emissiveFactor":[0.0,0.0,0.0],"alphaMode":"BLEND","name":"Bar_A_mat"},{"pbrMetallicRoughness":{"baseColorFactor":[1.0,1.0,1.0,1.0],"baseColorTexture":{"index":1},"metallicFactor":0.0,"roughnessFactor":0.7},"emissiveFactor":[0.0,0.0,0.0],"alphaMode":"BLEND","name":"Bar_B_mat"}],"textures":[{"sampler":0,"source":0,"name":"Bar_A_mat_baseColor.png"},{"sampler":1,"source":1,"name":"Bar_B_mat_baseColor.png"}],"images":[{"uri":"Bar_A_mat_baseColor.png"},{"uri":"Bar_B_mat_baseColor.png"}],"samplers":[{"magFilter":9729,"minFilter":9987,"wrapS":10497,"wrapT":10497},{"magFilter":9729,"minFilter":9987,"wrapS":10497,"wrapT":10497}]}