{"asset":{"version":"2.0","generator":"Babylon2Gltf2017","copyright":"2017 (c) BabylonJS"},"scene":0,"scenes":[{"nodes":[0]}],"nodes":[{"mesh":0,"translation":[0.0,0.0,0.0],"rotation":[0.0,0.0,0.0,-1.0],"scale":[1.0,1.0,1.0],"name":"model"}],"meshes":[{"primitives":[{"attributes":{"POSITION":1,"NORMAL":2},"indices":0,"mode":4,"material":0},{"attributes":{"POSITION":4,"NORMAL":5},"indices":3,"mode":4,"material":1},{"attributes":{"POSITION":7,"NORMAL":8},"indices":6,"mode":4,"material":2},{"attributes":{"POSITION":10,"NORMAL":11},"indices":9,"mode":4,"material":3},{"attributes":{"POSITION":13,"NORMAL":14},"indices":12,"mode":4,"material":4},{"attributes":{"POSITION":16,"NORMAL":17},"indices":15,"mode":4,"material":5},{"attributes":{"POSITION":19,"NORMAL":20},"indices":18,"mode":4,"material":6},{"attributes":{"POSITION":22,"NORMAL":23},"indices":21,"mode":4,"material":7},{"attributes":{"POSITION":25,"NORMAL":26},"indices":24,"mode":4,"material":8},{"attributes":{"POSITION":28,"NORMAL":29},"indices":27,"mode":4,"material":9},{"attributes":{"POSITION":31,"NORMAL":32},"indices":30,"mode":4,"material":10},{"attributes":{"POSITION":34,"NORMAL":35},"indices":33,"mode":4,"material":11},{"attributes":{"POSITION":37,"NORMAL":38},"indices":36,"mode":4,"material":12},{"attributes":{"POSITION":40,"NORMAL":41},"indices":39,"mode":4,"material":13}],"name":"model"}],"accessors":[{"bufferView":0,"componentType":5123,"count":13668,"type":"SCALAR","name":"accessorIndices"},{"bufferView":1,"componentType":5126,"count":13668,"max":[2.85055,1.35357,1.22262],"min":[-1.82919,-1.642,-1.11434],"type":"VEC3","name":"accessorPositions"},{"bufferView":1,"byteOffset":164016,"componentType":5126,"count":13668,"type":"VEC3","name":"accessorNormals"},{"bufferView":0,"byteOffset":27336,"componentType":5123,"count":11856,"type":"SCALAR","name":"accessorIndices"},{"bufferView":1,"byteOffset":328032,"componentType":5126,"count":11856,"max":[0.995414,0.324158,0.473424],"min":[-0.40255,-1.4496,-0.55206],"type":"VEC3","name":"accessorPositions"},{"bufferView":1,"byteOffset":470304,"componentType":5126,"count":11856,"type":"VEC3","name":"accessorNormals"},{"bufferView":0,"byteOffset":51048,"componentType":5123,"count":1596,"type":"SCALAR","name":"accessorIndices"},{"bufferView":1,"byteOffset":612576,"componentType":5126,"count":1596,"max":[1.0794,0.0889435,0.457199],"min":[-0.335999,-1.49264,-0.20451],"type":"VEC3","name":"accessorPositions"},{"bufferView":1,"byteOffset":631728,"componentType":5126,"count":1596,"type":"VEC3","name":"accessorNormals"},{"bufferView":0,"byteOffset":54240,"componentType":5123,"count":5328,"type":"SCALAR","name":"accessorIndices"},{"bufferView":1,"byteOffset":650880,"componentType":5126,"count":5328,"max":[0.544773,0.495111,0.453703],"min":[-0.399907,-0.250975,-0.498046],"type":"VEC3","name":"accessorPositions"},{"bufferView":1,"byteOffset":714816,"componentType":5126,"count":5328,"type":"VEC3","name":"accessorNormals"},{"bufferView":0,"byteOffset":64896,"componentType":5123,"count":54,"type":"SCALAR","name":"accessorIndices"},{"bufferView":1,"byteOffset":778752,"componentType":5126,"count":54,"max":[0.522924,-0.0991516,0.173135],"min":[0.313418,-0.10441,-0.207969],"type":"VEC3","name":"accessorPositions"},{"bufferView":1,"byteOffset":779400,"componentType":5126,"count":54,"type":"VEC3","name":"accessorNormals"},{"bufferView":0,"byteOffset":65004,"componentType":5123,"count":5148,"type":"SCALAR","name":"accessorIndices"},{"bufferView":1,"byteOffset":780048,"componentType":5126,"count":5148,"max":[0.522924,0.142446,0.453481],"min":[-0.388391,-0.236969,-0.187422],"type":"VEC3","name":"accessorPositions"},{"bufferView":1,"byteOffset":841824,"componentType":5126,"count":5148,"type":"VEC3","name":"accessorNormals"},{"bufferView":0,"byteOffset":75300,"componentType":5123,"count":480,"type":"SCALAR","name":"accessorIndices"},{"bufferView":1,"byteOffset":903600,"componentType":5126,"count":480,"max":[0.39535,0.106663,0.020784],"min":[-0.26547,-0.145326,-0.499992],"type":"VEC3","name":"accessorPositions"},{"bufferView":1,"byteOffset":909360,"componentType":5126,"count":480,"type":"VEC3","name":"accessorNormals"},{"bufferView":0,"byteOffset":76260,"componentType":5123,"count":2964,"type":"SCALAR","name":"accessorIndices"},{"bufferView":1,"byteOffset":915120,"componentType":5126,"count":2964,"max":[0.42149,0.138589,-0.117656],"min":[-0.316158,-0.0922434,-0.53665],"type":"VEC3","name":"accessorPositions"},{"bufferView":1,"byteOffset":950688,"componentType":5126,"count":2964,"type":"VEC3","name":"accessorNormals"},{"bufferView":0,"byteOffset":82188,"componentType":5123,"count":48,"type":"SCALAR","name":"accessorIndices"},{"bufferView":1,"byteOffset":986256,"componentType":5126,"count":48,"max":[-0.310926,-0.090286,-0.120332],"min":[-0.313866,-0.0921259,-0.123286],"type":"VEC3","name":"accessorPositions"},{"bufferView":1,"byteOffset":986832,"componentType":5126,"count":48,"type":"VEC3","name":"accessorNormals"},{"bufferView":0,"byteOffset":82284,"componentType":5123,"count":72,"type":"SCALAR","name":"accessorIndices"},{"bufferView":1,"byteOffset":987408,"componentType":5126,"count":72,"max":[0.0192409,0.0879633,0.459826],"min":[-0.334099,-0.0931637,-0.118978],"type":"VEC3","name":"accessorPositions"},{"bufferView":1,"byteOffset":988272,"componentType":5126,"count":72,"type":"VEC3","name":"accessorNormals"},{"bufferView":0,"byteOffset":82428,"componentType":5123,"count":672,"type":"SCALAR","name":"accessorIndices"},{"bufferView":1,"byteOffset":989136,"componentType":5126,"count":672,"max":[0.395587,0.291717,0.0219104],"min":[-0.267938,-0.236874,-0.480234],"type":"VEC3","name":"accessorPositions"},{"bufferView":1,"byteOffset":997200,"componentType":5126,"count":672,"type":"VEC3","name":"accessorNormals"},{"bufferView":0,"byteOffset":83772,"componentType":5123,"count":384,"type":"SCALAR","name":"accessorIndices"},{"bufferView":1,"byteOffset":1005264,"componentType":5126,"count":384,"max":[0.25774,-0.106486,0.451884],"min":[-0.102383,-0.235491,0.286424],"type":"VEC3","name":"accessorPositions"},{"bufferView":1,"byteOffset":1009872,"componentType":5126,"count":384,"type":"VEC3","name":"accessorNormals"},{"bufferView":0,"byteOffset":84540,"componentType":5123,"count":60,"type":"SCALAR","name":"accessorIndices"},{"bufferView":1,"byteOffset":1014480,"componentType":5126,"count":60,"max":[0.513604,-0.0674288,0.443791],"min":[0.504163,-0.0733242,0.434908],"type":"VEC3","name":"accessorPositions"},{"bufferView":1,"byteOffset":1015200,"componentType":5126,"count":60,"type":"VEC3","name":"accessorNormals"},{"bufferView":0,"byteOffset":84660,"componentType":5123,"count":72,"type":"SCALAR","name":"accessorIndices"},{"bufferView":1,"byteOffset":1015920,"componentType":5126,"count":72,"max":[0.21413,-0.128107,0.410474],"min":[-0.061581,-0.187695,0.35762],"type":"VEC3","name":"accessorPositions"},{"bufferView":1,"byteOffset":1016784,"componentType":5126,"count":72,"type":"VEC3","name":"accessorNormals"}],"bufferViews":[{"buffer":0,"byteLength":84804,"name":"bufferViewScalar"},{"buffer":0,"byteOffset":84804,"byteLength":1017648,"byteStride":12,"name":"bufferViewFloatVec3"}],"buffers":[{"uri":"andytreehouse.bin","byteLength":1102452}],"materials":[{"pbrMetallicRoughness":{"baseColorFactor":[0.9999999,0.9999999,0.9999999,1.0],"metallicFactor":0.9999998,"roughnessFactor":0.99},"emissiveFactor":[0.0,0.0,0.0],"alphaMode":"OPAQUE","name":"mat20"},{"pbrMetallicRoughness":{"baseColorFactor":[0.9999999,0.9999999,0.9999999,1.0],"metallicFactor":0.9999998,"roughnessFactor":0.99},"emissiveFactor":[0.0,0.0,0.0],"alphaMode":"OPAQUE","name":"mat19"},{"pbrMetallicRoughness":{"baseColorFactor":[0.9999999,0.9999999,0.9999999,1.0],"metallicFactor":0.9999998,"roughnessFactor":0.99},"emissiveFactor":[0.0,0.0,0.0],"alphaMode":"OPAQUE","name":"mat23"},{"pbrMetallicRoughness":{"baseColorFactor":[0.9999999,0.9999999,0.9999999,1.0],"metallicFactor":0.9999998,"roughnessFactor":0.99},"emissiveFactor":[0.0,0.0,0.0],"alphaMode":"OPAQUE","name":"mat18"},{"pbrMetallicRoughness":{"baseColorFactor":[0.9999999,0.9999999,0.9999999,1.0],"metallicFactor":0.9999998,"roughnessFactor":0.99},"emissiveFactor":[0.0,0.0,0.0],"alphaMode":"OPAQUE","name":"mat11"},{"pbrMetallicRoughness":{"baseColorFactor":[0.9999999,0.9999999,0.9999999,1.0],"metallicFactor":0.9999998,"roughnessFactor":0.99},"emissiveFactor":[0.0,0.0,0.0],"alphaMode":"OPAQUE","name":"mat21"},{"pbrMetallicRoughness":{"baseColorFactor":[0.9999999,0.9999999,0.9999999,1.0],"metallicFactor":0.9999998,"roughnessFactor":0.99},"emissiveFactor":[0.0,0.0,0.0],"alphaMode":"OPAQUE","name":"mat14"},{"pbrMetallicRoughness":{"baseColorFactor":[0.9999999,0.9999999,0.9999999,1.0],"metallicFactor":0.9999998,"roughnessFactor":0.99},"emissiveFactor":[0.0,0.0,0.0],"alphaMode":"OPAQUE","name":"mat10"},{"pbrMetallicRoughness":{"baseColorFactor":[0.9999999,0.9999999,0.9999999,1.0],"metallicFactor":0.9999998,"roughnessFactor":0.99},"emissiveFactor":[0.0,0.0,0.0],"alphaMode":"OPAQUE","name":"mat7"},{"pbrMetallicRoughness":{"baseColorFactor":[0.9999999,0.9999999,0.9999999,1.0],"metallicFactor":0.9999998,"roughnessFactor":0.99},"emissiveFactor":[0.0,0.0,0.0],"alphaMode":"OPAQUE","name":"mat12"},{"pbrMetallicRoughness":{"baseColorFactor":[0.9999999,0.9999999,0.9999999,1.0],"metallicFactor":0.9999998,"roughnessFactor":0.99},"emissiveFactor":[0.0,0.0,0.0],"alphaMode":"OPAQUE","name":"mat22"},{"pbrMetallicRoughness":{"baseColorFactor":[0.9999999,0.9999999,0.9999999,1.0],"metallicFactor":0.9999998,"roughnessFactor":0.99},"emissiveFactor":[0.0,0.0,0.0],"alphaMode":"OPAQUE","name":"mat5"},{"pbrMetallicRoughness":{"baseColorFactor":[0.9999999,0.9999999,0.9999999,1.0],"metallicFactor":0.9999998,"roughnessFactor":0.99},"emissiveFactor":[0.0,0.0,0.0],"alphaMode":"OPAQUE","name":"mat8"},{"pbrMetallicRoughness":{"baseColorFactor":[0.9999999,0.9999999,0.9999999,1.0],"metallicFactor":0.9999998,"roughnessFactor":0.99},"emissiveFactor":[0.0,0.0,0.0],"alphaMode":"OPAQUE","name":"mat4"}]}